<svg width="37" height="40" viewBox="0 0 37 40" fill="none" xmlns="http://www.w3.org/2000/svg">
<path fill-rule="evenodd" clip-rule="evenodd" d="M15.9151 0.895939C15.2834 1.52766 15.0192 2.09318 15.0192 2.81318C15.0192 3.80444 14.8782 3.91908 10.2369 6.70314C5.94238 9.27939 5.37839 9.53686 4.70529 9.23034C4.29303 9.04245 3.46881 8.88889 2.87387 8.88889C2.08674 8.88889 1.54789 9.13287 0.895939 9.78483C0.189425 10.4913 0 10.9536 0 11.9709C0 13.0483 0.176858 13.4277 1.0728 14.2728L2.14559 15.2846V20.3418C2.14559 25.1393 2.11402 25.4093 1.52919 25.5948C1.19019 25.7027 0.707433 26.1876 0.456398 26.6731C0.205364 27.1586 0 27.901 0 28.3228C0 28.7448 0.149578 29.4185 0.332567 29.8201C0.515555 30.2216 1.0541 30.7798 1.5295 31.0605C2.0046 31.3413 2.67586 31.5709 3.0213 31.5709C3.36674 31.5709 3.96628 31.4268 4.35341 31.2506C4.96307 30.9729 5.72506 31.3067 10.0383 33.7385C14.6379 36.3323 15.0192 36.6136 15.0192 37.4136C15.0192 37.8903 15.352 38.667 15.7588 39.1399C16.392 39.8762 16.7271 40 18.0843 40C19.4415 40 19.7766 39.8762 20.4098 39.1399C20.8166 38.667 21.1494 37.8903 21.1494 37.4136C21.1494 36.6136 21.5307 36.3323 26.1303 33.7385C30.4435 31.3067 31.2055 30.9729 31.8152 31.2506C32.2023 31.4268 32.8018 31.5709 33.1473 31.5709C33.4927 31.5709 34.164 31.3413 34.6391 31.0605C35.1145 30.7798 35.653 30.2216 35.836 29.8201C36.019 29.4185 36.1686 28.7448 36.1686 28.3228C36.1686 27.901 35.9632 27.1586 35.7122 26.6731C35.4612 26.1876 34.9784 25.7027 34.6394 25.5948C34.0546 25.4093 34.023 25.1393 34.023 20.3418V15.2846L35.0958 14.2728C35.9917 13.4277 36.1686 13.0483 36.1686 11.9709C36.1686 10.9536 35.9792 10.4913 35.2726 9.78483C34.6207 9.13287 34.0818 8.88889 33.2947 8.88889C32.6998 8.88889 31.8756 9.04245 31.4633 9.23034C30.7902 9.53686 30.2262 9.27939 25.9317 6.70314C21.2904 3.91908 21.1494 3.80444 21.1494 2.81318C21.1494 2.09318 20.8852 1.52766 20.2535 0.895939C19.5507 0.19341 19.0829 0 18.0843 0C17.0857 0 16.6179 0.19341 15.9151 0.895939ZM19.249 1.90038C19.4513 2.10268 19.6169 2.62682 19.6169 3.06513C19.6169 3.50345 19.4513 4.02759 19.249 4.22988C19.0467 4.43218 18.5226 4.5977 18.0843 4.5977C17.646 4.5977 17.1218 4.43218 16.9195 4.22988C16.7172 4.02759 16.5517 3.50345 16.5517 3.06513C16.5517 2.62682 16.7172 2.10268 16.9195 1.90038C17.1218 1.69808 17.646 1.53257 18.0843 1.53257C18.5226 1.53257 19.0467 1.69808 19.249 1.90038ZM16.3804 5.68031C16.7077 5.92766 17.47 6.13027 18.0748 6.13027C18.6792 6.13027 19.4581 5.93134 19.8054 5.68797C20.389 5.27939 20.7982 5.4587 25.2242 8.06345C29.8038 10.7586 30.0077 10.9202 29.916 11.7769C29.8302 12.5787 29.3738 12.9272 25.5614 15.1022C23.219 16.4386 21.1292 17.6025 20.9171 17.6886C20.705 17.7747 20.0644 17.6236 19.4939 17.3529C18.8362 17.0409 18.1051 16.9306 17.4976 17.0523C16.9704 17.1577 16.4647 17.364 16.3739 17.5108C16.2832 17.6576 16.0104 17.7778 15.7674 17.7778C15.5243 17.7778 13.3057 16.6287 10.8368 15.2239C6.80184 12.9281 6.3387 12.5796 6.25502 11.7756C6.16644 10.9241 6.3859 10.7467 10.8205 8.07847C13.3827 6.53701 15.5479 5.26559 15.6322 5.25303C15.7165 5.24046 16.0533 5.43264 16.3804 5.68031ZM4.45916 11.1672C4.83678 11.7434 4.87172 12.0552 4.61241 12.5395C4.42789 12.884 4.03004 13.2981 3.72843 13.4596C3.36092 13.6564 2.93303 13.6313 2.4328 13.383C1.9623 13.1497 1.64935 12.6964 1.58713 12.1582C1.53287 11.6883 1.65303 11.1053 1.85441 10.8628C2.05579 10.6201 2.61425 10.4215 3.09548 10.4215C3.68429 10.4215 4.13057 10.6654 4.45916 11.1672ZM34.3142 10.8628C34.5156 11.1053 34.6357 11.6883 34.5815 12.1582C34.5192 12.6964 34.2063 13.1497 33.7358 13.383C33.2356 13.6313 32.8077 13.6564 32.4402 13.4596C32.1385 13.2981 31.7407 12.884 31.5562 12.5395C31.2969 12.0552 31.3318 11.7434 31.7094 11.1672C32.038 10.6654 32.4843 10.4215 33.0731 10.4215C33.5543 10.4215 34.1128 10.6201 34.3142 10.8628ZM10.305 16.7816C14.7752 19.3333 15.0035 19.5099 15.0112 20.4184C15.0155 20.9434 15.2987 21.7284 15.6402 22.1628C15.9816 22.5971 16.5333 23.0388 16.8662 23.1442C17.4369 23.3254 17.4713 23.6282 17.4713 28.5015V33.6665L16.4055 34.3252L15.3398 34.9836L10.8116 32.4264L6.28353 29.8688L6.2259 28.5894C6.19433 27.886 6.01778 27.029 5.83356 26.6851C5.64965 26.3415 5.08935 25.848 4.58851 25.5893L3.67816 25.1185V20.0687C3.67816 15.9841 3.75877 15.0192 4.10054 15.0192C4.33257 15.0192 4.69425 14.8123 4.90421 14.5594C5.11418 14.3065 5.35816 14.0996 5.44644 14.0996C5.53471 14.0996 7.72107 15.3067 10.305 16.7816ZM31.2644 14.5594C31.4743 14.8123 31.836 15.0192 32.068 15.0192C32.4098 15.0192 32.4904 15.9841 32.4904 20.0687V25.1185L31.5801 25.5893C31.0792 25.848 30.5189 26.3415 30.335 26.6851C30.1508 27.029 29.9743 27.886 29.9427 28.5894L29.8851 29.8688L25.3569 32.4264L20.8288 34.9836L19.7631 34.3252L18.6973 33.6665V28.5015C18.6973 23.6282 18.7316 23.3254 19.3024 23.1442C19.6353 23.0388 20.187 22.5971 20.5284 22.1628C20.8699 21.7284 21.1531 20.9434 21.1577 20.4184C21.1657 19.5108 21.3971 19.3312 25.832 16.7884C28.3985 15.3171 30.5845 14.1103 30.6906 14.1064C30.7963 14.1027 31.0544 14.3065 31.2644 14.5594ZM18.9355 18.868C19.3582 19.1638 19.6169 19.6644 19.6169 20.1861C19.6169 20.6486 19.4513 21.1923 19.249 21.3946C19.0467 21.5969 18.5226 21.7625 18.0843 21.7625C17.646 21.7625 17.1218 21.5969 16.9195 21.3946C16.7172 21.1923 16.5517 20.6486 16.5517 20.1861C16.5517 19.6644 16.8104 19.1638 17.2331 18.868C17.6077 18.6057 17.9908 18.3908 18.0843 18.3908C18.1778 18.3908 18.5609 18.6057 18.9355 18.868ZM4.1177 27.0737C4.42973 27.3018 4.67433 27.8639 4.67433 28.3525C4.67433 28.8411 4.42973 29.4032 4.1177 29.6313C3.81149 29.855 3.35694 30.0383 3.10743 30.0383C2.85793 30.0383 2.40153 29.81 2.09318 29.531C1.78483 29.2521 1.53257 28.7102 1.53257 28.3267C1.53257 27.9436 1.74927 27.4133 2.0141 27.1482C2.27923 26.8834 2.73563 26.6667 3.02835 26.6667C3.32138 26.6667 3.81149 26.85 4.1177 27.0737ZM34.1545 27.1482C34.4193 27.4133 34.636 27.9197 34.636 28.2737C34.636 28.6277 34.4077 29.1693 34.1287 29.4777C33.8498 29.7861 33.3934 30.0383 33.1145 30.0383C32.8359 30.0383 32.3571 29.855 32.0509 29.6313C31.7389 29.4032 31.4943 28.8411 31.4943 28.3525C31.4943 27.8639 31.7389 27.3018 32.0509 27.0737C32.3571 26.85 32.8472 26.6667 33.1402 26.6667C33.4329 26.6667 33.8894 26.8834 34.1545 27.1482ZM19.0562 35.7563C19.3646 36.0352 19.6169 36.659 19.6169 37.1421C19.6169 37.7821 19.4084 38.1159 18.8506 38.37C18.2774 38.6311 17.8912 38.6311 17.318 38.37C16.7767 38.1232 16.5517 37.7784 16.5517 37.1954C16.5517 36.7415 16.7801 36.118 17.059 35.8097C17.3379 35.5013 17.7753 35.249 18.031 35.249C18.2866 35.249 18.7479 35.4774 19.0562 35.7563Z" fill="white"/>
</svg>
