<svg width="48" height="40" viewBox="0 0 48 40" fill="none" xmlns="http://www.w3.org/2000/svg">
<path fill-rule="evenodd" clip-rule="evenodd" d="M28.3181 0.480562C27.9354 0.800537 27.7434 2.55779 27.7434 5.74272C27.7434 9.82669 27.8655 10.6016 28.5815 11.0561C29.0427 11.3489 29.8842 11.594 30.4517 11.6008C31.1586 11.6096 31.877 12.1746 32.7324 13.3949C33.4192 14.3748 34.1788 15.2787 34.4202 15.4036C34.662 15.5282 35.4479 14.7268 36.1668 13.6219L37.4743 11.6136H41.6171C44.4442 11.6136 46.0549 11.4326 46.6894 11.0437C47.5156 10.5375 47.619 9.96526 47.619 5.8989C47.619 2.60985 47.4342 1.13773 46.962 0.661974C46.3944 0.0909063 45.1109 0 37.5988 0C31.4661 0 28.7228 0.142167 28.3181 0.480562ZM46.1823 5.60656V10.2119L41.5136 10.3265L36.845 10.441L35.8766 12.0285C35.3435 12.9015 34.8071 13.6159 34.6841 13.6159C34.561 13.6159 33.9249 12.9067 33.2707 12.0405C32.3402 10.8074 31.7396 10.437 30.5111 10.3385L28.9407 10.2119L28.8004 6.4075C28.7233 4.31505 28.7822 2.19337 28.9321 1.69278C29.2036 0.783716 29.2137 0.782515 37.6932 0.891843L46.1823 1.00117V5.60656ZM12.7312 2.58663C11.7188 2.88858 10.3438 3.55616 9.67614 4.07076C9.00898 4.58496 8.16702 5.58573 7.80591 6.29456C7.44479 7.00339 7.14929 8.25205 7.14929 9.06941C7.14929 9.88676 6.89306 11.1474 6.58032 11.8711C6.08941 13.0064 6.13252 13.298 6.89402 14.002C7.37966 14.4505 8.0128 14.8177 8.30112 14.8181C8.58944 14.8189 9.44289 15.8069 10.1972 17.0139C10.9515 18.2209 11.4573 19.4508 11.3217 19.7463C11.1862 20.0418 9.47738 20.6802 7.52477 21.1652C5.57217 21.6497 3.5027 22.3229 2.92511 22.6609C2.348 22.9993 1.51705 23.8507 1.07883 24.5531C0.470104 25.5291 0.231116 27.3015 0.065406 32.0723C-0.0844998 36.3806 0.0208652 38.5847 0.406406 39.1866C0.962925 40.0565 0.999802 40.0585 15.4315 39.9527L29.8986 39.8466L30.0293 32.7006C30.1495 26.1558 30.0806 25.4462 29.2079 24.2656C28.684 23.5568 27.6945 22.7258 27.0096 22.4194C26.3248 22.1127 24.3238 21.4867 22.5632 21.0282C19.9535 20.3486 19.3328 20.0246 19.204 19.2749C19.1168 18.7692 19.3712 18.0547 19.7691 17.6871C20.1671 17.3195 20.7179 16.5233 20.9933 15.9178C21.2682 15.3127 21.8099 14.8173 22.1969 14.8173C22.5834 14.8173 23.2199 14.4349 23.6111 13.9679C24.1265 13.3528 24.2002 12.8478 23.8779 12.1398C23.6332 11.6016 23.4282 10.407 23.4224 9.4851C23.4167 8.56322 23.0163 7.08829 22.5321 6.20726C22.0484 5.32623 21.2055 4.273 20.6585 3.86652C20.1121 3.46005 18.8424 2.88217 17.8371 2.58262C16.8319 2.28267 15.6863 2.03758 15.2911 2.03758C14.896 2.03758 13.7442 2.28467 12.7312 2.58663ZM18.0689 3.76641C18.7802 4.07597 19.8831 4.79521 20.5196 5.36508C21.3923 6.14599 21.7261 6.96935 21.875 8.70699L22.0723 11.0129L21.1542 9.81148C20.6489 9.1507 19.8678 8.35617 19.4186 8.04581C18.705 7.55324 18.3563 7.59649 16.6752 8.38661C15.5632 8.90922 13.5483 9.38258 11.9075 9.50712C9.89213 9.6597 9.06502 9.88797 9.06502 10.2912C9.06502 10.604 8.85237 10.7498 8.59231 10.6156C8.33225 10.4811 8.20821 9.79466 8.31693 9.09023C8.42612 8.38541 8.73934 7.35861 9.01329 6.80796C9.28724 6.25732 9.80832 5.49523 10.1718 5.11438C10.5349 4.73354 11.4582 4.14925 12.2236 3.81526C12.9889 3.48167 14.3261 3.20775 15.1953 3.20615C16.0641 3.20495 17.3572 3.45684 18.0689 3.76641ZM31.3694 4.63382C30.9556 4.98023 30.617 5.49883 30.617 5.78637C30.617 6.0739 30.9283 6.52563 31.309 6.78954C31.6898 7.05385 32.4977 7.21083 33.105 7.13915C33.833 7.05265 34.2621 6.69383 34.3656 6.08512C34.4513 5.57732 34.2635 4.90173 33.9475 4.58336C33.6318 4.26499 33.0916 4.00468 32.7477 4.00468C32.4039 4.00468 31.7836 4.28782 31.3694 4.63382ZM36.3531 4.81483C35.5835 5.45838 35.4887 5.78797 35.891 6.41671C36.1826 6.87204 36.8924 7.20843 37.5615 7.20843C38.2023 7.20843 38.9374 6.87644 39.198 6.46957C39.5385 5.93734 39.4686 5.48842 38.9485 4.86769C38.5509 4.39314 38.0222 4.00468 37.7736 4.00468C37.5251 4.00468 36.8862 4.36911 36.3531 4.81483ZM41.5127 4.43719C41.0515 4.66185 40.6745 5.28338 40.6745 5.81921C40.6745 6.52483 41.0055 6.86203 41.8781 7.04544C42.5682 7.19001 43.3853 7.08709 43.7938 6.80356C44.1856 6.53164 44.506 6.0739 44.506 5.78637C44.506 5.49883 44.1674 4.98023 43.7536 4.63382C43.3393 4.28782 42.8546 4.01029 42.676 4.0167C42.4969 4.02351 41.9739 4.21253 41.5127 4.43719ZM33.0475 5.71669C33.0279 5.87647 32.8555 6.02064 32.6644 6.03706C32.4733 6.05348 32.231 5.85084 32.1256 5.58653C32.0202 5.32223 32.1926 5.17806 32.5087 5.26616C32.8248 5.35426 33.0672 5.5569 33.0475 5.71669ZM38.1879 5.63659C38.0936 5.87327 37.812 6.0671 37.5615 6.0671C37.311 6.0671 37.0294 5.87327 36.935 5.63659C36.8407 5.39992 37.1223 5.20609 37.5615 5.20609C38.0007 5.20609 38.2823 5.39992 38.1879 5.63659ZM43.0692 5.80679C43.0692 6.13718 42.8666 6.4075 42.6185 6.4075C42.3704 6.4075 42.0534 6.25251 41.9131 6.06269C41.7732 5.87327 41.7962 5.60295 41.9648 5.46199C42.1334 5.32142 42.4504 5.20609 42.6702 5.20609C42.8896 5.20609 43.0692 5.47641 43.0692 5.80679ZM20.0805 13.0465C20.0805 15.7628 19.9823 16.0396 18.6068 17.1893C17.4947 18.1192 16.7016 18.4211 15.374 18.4195C14.2662 18.4183 13.1244 18.0848 12.2906 17.5185C11.5622 17.0239 10.804 16.0788 10.6053 15.418C10.407 14.7573 10.3562 13.356 10.4927 12.3044C10.6297 11.2528 10.849 10.4262 10.9807 10.467C11.1125 10.5083 12.2978 10.4162 13.6149 10.262C14.9319 10.1082 16.5483 9.73258 17.2069 9.42703C18.2471 8.94486 18.5143 8.95487 19.2423 9.50392C19.8942 9.99569 20.0805 10.7822 20.0805 13.0465ZM9.06502 12.815C9.06502 13.4758 8.84279 14.0164 8.57124 14.0164C8.29921 14.0164 7.95294 13.7461 7.8016 13.4157C7.64977 13.0853 7.64977 12.5447 7.8016 12.2143C7.95294 11.8839 8.29921 11.6136 8.57124 11.6136C8.84279 11.6136 9.06502 12.1542 9.06502 12.815ZM22.8597 12.6953C22.9411 13.1542 22.6777 13.6187 22.261 13.7525C21.6887 13.9363 21.5173 13.7092 21.5173 12.7689C21.5173 11.9704 21.7246 11.604 22.1159 11.7117C22.4454 11.8022 22.7797 12.2451 22.8597 12.6953ZM17.6858 20.0302C17.6858 20.3903 17.1293 21.1215 16.4497 21.6557L15.2131 22.6265L13.8017 21.3057C13.0248 20.5793 12.5009 19.834 12.6374 19.6498C12.7734 19.4656 13.965 19.3286 15.2854 19.345C17.1729 19.3691 17.6858 19.5152 17.6858 20.0302ZM13.2499 22.4054L14.3213 23.5419L13.169 24.1735C12.0521 24.7854 11.9851 24.761 11.0138 23.3846C10.463 22.6032 10.135 21.7979 10.2849 21.5945C10.4352 21.391 10.9228 21.2348 11.3682 21.2469C11.8136 21.2593 12.6604 21.7807 13.2499 22.4054ZM20.2308 21.4843C20.4018 21.6269 20.0833 22.425 19.5235 23.2576C18.5455 24.7125 18.4621 24.7481 17.3951 24.1635L16.2844 23.5552L17.3146 22.3898C17.8812 21.749 18.6992 21.2248 19.1326 21.2248C19.5661 21.2248 20.0603 21.3414 20.2308 21.4843ZM10.1579 24.0569C11.2748 25.7505 11.6527 26.0333 12.499 25.8086C13.4506 25.5559 13.4937 25.6504 13.2585 27.4878C13.1216 28.5582 12.725 31.0151 12.3768 32.9469C11.8036 36.1271 11.8213 36.5684 12.5598 37.614C13.0081 38.2491 13.3754 38.8839 13.3754 39.0248C13.3754 39.1658 11.8127 39.2279 9.90315 39.1634L6.43089 39.0457L6.30062 31.0375C6.18376 23.8611 6.2556 22.9769 6.99076 22.5275C7.44192 22.2516 8.03963 22.0282 8.31836 22.0314C8.59758 22.0346 9.42518 22.946 10.1579 24.0569ZM23.1542 22.2689C23.8118 22.4799 23.9119 23.6188 23.9119 30.8789V39.2459H20.2806H16.6499L17.7078 37.8146C18.7629 36.387 18.7634 36.3721 17.9837 32.108C17.5531 29.7564 17.2026 27.3248 17.204 26.7044C17.2064 25.7745 17.3687 25.6188 18.1259 25.8198C18.8577 26.014 19.3213 25.6524 20.4009 24.0453C21.1466 22.9348 21.9009 22.0266 22.0766 22.0262C22.2529 22.0258 22.7376 22.1351 23.1542 22.2689ZM5.23356 31.0363V39.2459H3.28718H1.34032L1.49119 32.2041L1.64157 25.1618L3.20576 23.9945C4.06593 23.3521 4.87388 22.8267 5.00176 22.8267C5.12916 22.8267 5.23356 26.521 5.23356 31.0363ZM27.9321 24.5567C28.8483 25.5819 28.9546 26.3084 29.092 32.466L29.2434 39.2459H27.296H25.3487V31.2073C25.3487 23.9632 25.4268 23.1811 26.1361 23.2981C26.569 23.3693 27.3775 23.9356 27.9321 24.5567ZM16.0095 25.2351C16.0095 25.5623 15.6891 25.8302 15.2978 25.8302C14.9061 25.8302 14.5095 25.4986 14.4161 25.093C14.293 24.5579 14.488 24.3949 15.1278 24.4979C15.613 24.5759 16.0095 24.9075 16.0095 25.2351ZM15.7806 26.9315C15.7868 26.9868 16.1958 29.0892 16.6901 31.6046L17.5886 36.1775L16.5598 37.5063C15.9937 38.2375 15.3864 38.8378 15.2107 38.8406C15.0344 38.843 14.4554 38.2568 13.9238 37.5375C12.9856 36.2684 12.9789 36.1046 13.6881 32.0311C14.0905 29.722 14.5009 27.6075 14.6005 27.332C14.7006 27.0568 15.0043 26.8314 15.2763 26.8314C15.5478 26.8314 15.7749 26.8762 15.7806 26.9315Z" fill="white"/>
</svg>
