<svg width="35" height="35" viewBox="0 0 35 35" fill="none" xmlns="http://www.w3.org/2000/svg">
<rect width="35" height="35" rx="17.5" fill="white"/>
<path d="M17 26.036C14.54 26.036 14.25 26.023 13.29 25.981C12.5414 25.9564 11.8024 25.8042 11.105 25.531C10.5082 25.2987 9.96618 24.9449 9.51342 24.492C9.06066 24.039 8.70703 23.4969 8.475 22.9C8.21231 22.2 8.07062 21.4605 8.056 20.713C8 19.755 8 19.441 8 17C8 14.533 8.013 14.245 8.056 13.29C8.07094 12.5435 8.21262 11.805 8.475 11.106C8.70677 10.5083 9.06063 9.96558 9.51399 9.51239C9.96736 9.0592 10.5102 8.70554 11.108 8.474C11.8066 8.2102 12.5453 8.06814 13.292 8.054C14.247 8 14.561 8 17 8C19.48 8 19.765 8.013 20.71 8.054C21.458 8.068 22.2 8.21 22.9 8.474C23.4976 8.70581 24.0403 9.05956 24.4937 9.51272C24.947 9.96587 25.301 10.5085 25.533 11.106C25.8 11.816 25.943 12.566 25.954 13.323C26.01 14.281 26.01 14.594 26.01 17.034C26.01 19.474 25.996 19.794 25.954 20.741C25.9391 21.4892 25.797 22.2294 25.534 22.93C25.3014 23.5273 24.9471 24.0698 24.4936 24.5229C24.0402 24.976 23.4975 25.3298 22.9 25.562C22.2 25.824 21.461 25.966 20.714 25.981C19.759 26.036 19.446 26.036 17 26.036ZM16.966 9.583C14.52 9.583 14.266 9.595 13.311 9.638C12.7406 9.64546 12.1758 9.75065 11.641 9.949C11.2509 10.0985 10.8965 10.3281 10.6006 10.623C10.3047 10.9179 10.0739 11.2715 9.923 11.661C9.723 12.201 9.618 12.772 9.612 13.348C9.559 14.317 9.559 14.571 9.559 17C9.559 19.4 9.568 19.691 9.612 20.654C9.621 21.224 9.726 21.789 9.923 22.324C10.229 23.111 10.853 23.733 11.642 24.035C12.1761 24.2346 12.7408 24.3398 13.311 24.346C14.279 24.402 14.534 24.402 16.966 24.402C19.419 24.402 19.673 24.39 20.62 24.346C21.1904 24.3391 21.7553 24.2339 22.29 24.035C22.678 23.8843 23.0304 23.6546 23.3248 23.3604C23.6192 23.0662 23.8491 22.7139 24 22.326C24.2 21.786 24.305 21.214 24.311 20.638H24.322C24.365 19.682 24.365 19.427 24.365 16.984C24.365 14.541 24.354 14.284 24.311 13.329C24.302 12.7595 24.1968 12.1955 24 11.661C23.8495 11.2725 23.6197 10.9197 23.3253 10.6249C23.0309 10.3302 22.6783 10.1 22.29 9.949C21.7555 9.74968 21.1904 9.64446 20.62 9.638C19.653 9.583 19.4 9.583 16.966 9.583ZM17 21.619C16.0856 21.6196 15.1915 21.349 14.4309 20.8414C13.6703 20.3338 13.0773 19.6121 12.7269 18.7675C12.3765 17.9228 12.2844 16.9932 12.4624 16.0963C12.6404 15.1994 13.0803 14.3753 13.7266 13.7285C14.3729 13.0816 15.1966 12.6409 16.0934 12.4622C16.9902 12.2834 17.9198 12.3747 18.7648 12.7243C19.6097 13.074 20.332 13.6664 20.8402 14.4266C21.3484 15.1867 21.6198 16.0806 21.62 16.995C21.6184 18.2202 21.1313 19.3948 20.2653 20.2615C19.3994 21.1282 18.2252 21.6164 17 21.619ZM17 13.993C16.4067 13.993 15.8266 14.1689 15.3333 14.4986C14.8399 14.8282 14.4554 15.2968 14.2284 15.8449C14.0013 16.3931 13.9419 16.9963 14.0576 17.5783C14.1734 18.1602 14.4591 18.6948 14.8787 19.1143C15.2982 19.5339 15.8328 19.8196 16.4147 19.9354C16.9967 20.0511 17.5999 19.9917 18.1481 19.7646C18.6962 19.5376 19.1648 19.1531 19.4944 18.6597C19.8241 18.1664 20 17.5863 20 16.993C19.9982 16.1979 19.6815 15.4359 19.1193 14.8737C18.5571 14.3115 17.7951 13.9948 17 13.993ZM21.8 13.28C21.6584 13.2795 21.5184 13.2511 21.3878 13.1964C21.2572 13.1418 21.1386 13.0619 21.0389 12.9614C20.8375 12.7585 20.7249 12.4839 20.726 12.198C20.7271 11.9121 20.8417 11.6383 21.0446 11.4369C21.2475 11.2355 21.5221 11.1229 21.808 11.124C22.0939 11.1251 22.3677 11.2397 22.5691 11.4426C22.7705 11.6455 22.8831 11.9201 22.882 12.206C22.8809 12.4919 22.7663 12.7657 22.5634 12.9671C22.3605 13.1685 22.0859 13.2811 21.8 13.28Z" fill="#040404"/>
</svg>
