<svg width="41" height="40" viewBox="0 0 41 40" fill="none" xmlns="http://www.w3.org/2000/svg">
<path fill-rule="evenodd" clip-rule="evenodd" d="M22.7342 0.240966C22.6274 0.373593 21.7856 2.23443 20.8634 4.37632C19.9411 6.51822 19.2167 8.42667 19.2533 8.61732C19.3011 8.8658 20.5131 9.474 23.5331 10.7656C27.0595 12.2736 27.7879 12.525 28.0035 12.3078C28.145 12.1651 29.0022 10.3214 29.9082 8.21095C30.8145 6.10048 31.5559 4.22442 31.5559 4.04186C31.5559 3.85931 31.4475 3.62258 31.3149 3.51579C31.1825 3.40899 29.338 2.57428 27.2166 1.66093C25.0949 0.747379 23.262 0 23.1437 0C23.0253 0 22.841 0.108531 22.7342 0.240966ZM27.1352 2.33891C29.1474 3.20118 30.8291 3.96398 30.8723 4.03376C30.9155 4.10374 30.2288 5.83214 29.3465 7.87495C28.4642 9.91757 27.6991 11.6321 27.6462 11.6847C27.5934 11.7375 25.8109 11.0293 23.685 10.1109L19.8197 8.44112L20.3043 7.35312C20.5709 6.75475 21.3193 5.02905 21.9672 3.5181C22.6151 2.00715 23.2198 0.77109 23.311 0.77109C23.4022 0.77109 25.123 1.47664 27.1352 2.33891ZM23.5467 3.71087C23.588 3.8435 23.674 4.81392 23.7376 5.8678C23.8014 6.9215 23.8959 7.82599 23.9477 7.87784C23.9994 7.92951 24.2841 7.73982 24.5804 7.45586C24.8767 7.1721 25.1653 6.93981 25.2216 6.93981C25.2778 6.93981 25.3382 7.30126 25.3553 7.7429C25.3727 8.18454 25.4112 8.57028 25.4409 8.60016C25.4708 8.62985 25.7981 8.37693 26.1685 8.03804C26.5388 7.69895 27.2829 7.01788 27.8217 6.52439L28.8015 5.62703L28.315 5.40534C27.8762 5.20544 27.8539 5.2143 28.0881 5.49652C28.3156 5.77065 28.2057 5.93855 27.2048 6.84767C26.5762 7.41885 25.9967 7.88999 25.9173 7.89481C25.8378 7.89962 25.7727 7.55109 25.7727 7.12005C25.7727 6.47851 25.883 6.24275 26.3817 5.81884C26.7167 5.53411 27.1092 5.25594 27.254 5.20062C27.4178 5.13816 27.2917 5.01517 26.9199 4.87483C26.4378 4.69285 26.3622 4.6969 26.5272 4.89584C26.6785 5.07801 26.6068 5.25961 26.2523 5.59272L25.7727 6.04323V5.33479C25.7727 4.90066 25.866 4.62365 26.0137 4.61902C26.1463 4.61478 25.9595 4.48331 25.599 4.32697C25.2383 4.17044 24.8985 4.08697 24.8439 4.14172C24.7894 4.19627 24.8458 4.241 24.9694 4.241C25.1173 4.241 25.1944 4.66066 25.1944 5.46414C25.1944 6.40429 25.1128 6.76111 24.8418 7.00632C24.6479 7.18174 24.431 7.32536 24.3599 7.32536C24.2887 7.32536 24.2305 6.588 24.2305 5.68679C24.2305 4.50818 24.2982 4.0463 24.4715 4.04148C24.6041 4.03762 24.4956 3.91058 24.2305 3.75906C23.9655 3.60754 23.6863 3.48051 23.61 3.47665C23.5338 3.47299 23.5053 3.57844 23.5467 3.71087ZM9.38703 5.20948C8.16774 5.28505 6.84783 5.3583 6.45399 5.37218C5.97361 5.38934 5.67539 5.51464 5.54758 5.7531C5.42035 5.99098 5.45119 7.53259 5.64107 10.4126C5.80821 12.9497 6.01544 14.8259 6.14594 14.9832C6.31597 15.1884 6.70498 15.2221 7.82885 15.1294C8.6329 15.0631 10.6237 14.9457 12.253 14.8685C14.5986 14.7573 15.261 14.6654 15.4351 14.4273C15.593 14.2116 15.6132 13.2886 15.507 11.1598C15.4256 9.52797 15.2947 7.49885 15.2163 6.65065L15.0738 5.10847L13.3389 5.09035C12.3846 5.08033 10.6063 5.13392 9.38703 5.20948ZM14.7679 9.75236C14.8996 12.0413 14.9678 13.9535 14.9198 14.0015C14.8718 14.0495 13.6724 14.1688 12.2543 14.2665C10.8363 14.3643 8.97083 14.4473 8.10856 14.4512L6.54113 14.4579L6.42643 12.8676C6.36339 11.993 6.25582 10.0845 6.18758 8.62657L6.06344 5.97595L7.19501 5.95224C7.81747 5.93932 9.23763 5.86722 10.3509 5.79185C11.4642 5.71667 12.8596 5.64052 13.4518 5.62279L14.5287 5.5904L14.7679 9.75236ZM12.039 7.24208C11.6506 7.45297 11.4786 7.72767 11.3905 8.27785C11.3092 8.78677 11.1544 9.05722 10.9072 9.122C10.6971 9.17694 10.5437 9.38725 10.5437 9.62051C10.5437 9.8873 10.6668 10.0242 10.9067 10.0242C11.1202 10.0242 11.3176 10.2029 11.3861 10.4579C11.4499 10.6964 11.5035 11.347 11.5048 11.9037C11.5075 12.8982 11.5176 12.9158 12.0833 12.9158H12.6591L12.5371 11.47C12.4197 10.0818 12.4313 10.0242 12.8286 10.0242C13.1415 10.0242 13.2425 9.90658 13.2425 9.54224C13.2425 9.18889 13.1397 9.06031 12.8569 9.06031C12.5741 9.06031 12.4714 8.93173 12.4714 8.57838C12.4714 8.31332 12.5416 8.09645 12.6273 8.09645C12.7131 8.09645 12.9346 7.98579 13.1197 7.85047C13.3306 7.69625 13.4086 7.48034 13.3286 7.27215C13.2587 7.0894 13.0588 6.94328 12.8845 6.94752C12.7102 6.95176 12.3299 7.08439 12.039 7.24208ZM30.8187 13.8546C30.6784 13.9434 30.4777 14.3976 30.3728 14.8637C30.2678 15.3297 29.8841 17.2701 29.52 19.1757C29.156 21.0812 28.9031 22.7813 28.9577 22.9534C29.0267 23.1705 29.5445 23.3648 30.6439 23.5861C31.5165 23.7619 32.8812 24.0395 33.6764 24.203C34.4715 24.3664 35.7516 24.6138 36.5207 24.7528C37.5486 24.9382 37.9923 24.9486 38.1953 24.7919C38.3642 24.6612 38.775 23.0167 39.2546 20.5509C39.6855 18.3359 40.0379 16.3242 40.0379 16.0803C40.0379 15.8366 39.9432 15.5787 39.8274 15.5072C39.7117 15.4357 37.6949 14.9971 35.3454 14.5323C32.9961 14.0678 31.0739 13.6888 31.0739 13.6901C31.0739 13.6917 30.959 13.7655 30.8187 13.8546ZM35.4751 15.2175C37.5775 15.6296 39.3283 15.9972 39.3653 16.0344C39.4025 16.0714 39.0734 17.944 38.6341 20.1956C38.1631 22.6089 37.7469 24.2893 37.6197 24.2893C37.5012 24.2893 35.6879 23.9499 33.5906 23.5348C31.493 23.1198 29.7116 22.7076 29.6318 22.6192C29.552 22.5305 29.8242 20.7664 30.2365 18.6989C30.6489 16.6314 31.025 14.8315 31.0722 14.6989C31.1196 14.5665 31.2694 14.4603 31.4053 14.463C31.541 14.4657 33.3726 14.8053 35.4751 15.2175ZM32.587 17.645C32.5272 17.8006 32.5263 18.0524 32.5847 18.2045C32.6431 18.3568 32.6115 18.5085 32.5145 18.5418C32.4158 18.5758 32.4509 18.9299 32.5939 19.3451C32.7347 19.7536 32.9683 20.1609 33.1131 20.2504C33.3319 20.3857 33.3284 20.4293 33.0927 20.5087C32.9365 20.5611 32.6354 20.6388 32.4233 20.6814C32.0864 20.7491 32.1062 20.7869 32.5805 20.9819C32.8789 21.1045 33.4861 21.2046 33.9299 21.2042C34.3993 21.2038 35.0042 21.0405 35.3762 20.8137C35.7643 20.5769 36.1652 20.0857 36.3958 19.5647C36.6048 19.0922 36.765 18.6488 36.7519 18.5792C36.7386 18.5098 36.8436 18.3795 36.9853 18.2897C37.1713 18.1717 37.1256 18.1256 36.8203 18.1235C36.588 18.122 36.3443 18.0339 36.2788 17.9278C36.2133 17.8218 35.9075 17.7351 35.5995 17.7351C35.2367 17.7351 34.9666 17.8708 34.833 18.1206C34.7195 18.3327 34.4496 18.5062 34.2331 18.5062C34.0166 18.5062 33.5821 18.2488 33.2675 17.9342C32.8233 17.4901 32.6712 17.4255 32.587 17.645ZM13.2234 18.7194C12.9159 19.0486 12.6642 19.3975 12.6642 19.4945C12.6642 19.5917 12.4404 20.0092 12.167 20.4223C11.8935 20.8356 11.35 21.3952 10.9593 21.6661C10.5685 21.9367 9.75985 22.3265 9.16226 22.5322C8.56466 22.7379 6.83106 23.0886 5.3097 23.3118C3.78834 23.535 2.22476 23.8043 1.83497 23.9105C1.44519 24.0168 0.908122 24.3626 0.64171 24.6793C0.374913 24.9964 0.101176 25.6287 0.0325489 26.0871C-0.037042 26.5513 0.00845231 27.2935 0.135682 27.766C0.275249 28.2844 0.646915 28.8958 1.09357 29.3427C1.74533 29.9942 1.9277 30.0725 2.79517 30.0725C3.74053 30.0725 3.792 30.1024 4.69745 31.1754C5.20926 31.782 5.84483 32.5394 6.1099 32.8585C6.37496 33.1775 6.86499 33.7221 7.19906 34.0687C7.58846 34.4729 7.99174 34.6991 8.32312 34.6991C8.60726 34.6991 9.30992 34.387 9.88457 34.0056C10.459 33.6242 10.9292 33.2421 10.9292 33.1567C10.9292 33.0711 10.3536 32.2771 9.65016 31.3922C8.94674 30.5074 8.27666 29.6644 8.16138 29.5189C7.98557 29.2974 8.27859 29.2679 9.97055 29.3365C11.5416 29.4005 12.1604 29.509 12.7605 29.8262C13.1846 30.0502 13.9183 30.631 14.391 31.1168C15.0071 31.75 15.4029 32.0002 15.7886 32.0002C16.0847 32.0002 16.5094 31.8177 16.7324 31.5946C17.0268 31.3003 17.1085 31.0408 17.0301 30.6489C16.9707 30.3518 16.5686 27.6499 16.1366 24.6448C15.7046 21.6397 15.3086 19.0423 15.257 18.8728C15.2051 18.7034 14.9435 18.4647 14.6755 18.3427C14.4074 18.2205 14.097 18.1206 13.9854 18.1206C13.874 18.1206 13.5311 18.3901 13.2234 18.7194ZM14.6609 19.3393C14.718 19.5703 14.9425 20.9736 15.1598 22.458C15.377 23.9423 15.7281 26.3279 15.9399 27.7592C16.1518 29.1906 16.3255 30.5597 16.3259 30.8014C16.3265 31.0433 16.1905 31.2935 16.024 31.3573C15.8339 31.4304 15.4576 31.2241 15.0119 30.8023C14.622 30.4332 13.9956 29.9046 13.6205 29.628C13.2454 29.3514 12.4247 28.9911 11.7969 28.8276C11.169 28.6641 10.2545 28.5303 9.76448 28.5303H8.87368L8.53883 26.1236C8.35473 24.7998 8.25854 23.6287 8.32504 23.5211C8.39155 23.4136 8.59261 23.3255 8.77189 23.3253C8.95117 23.3253 9.61836 23.0785 10.2545 22.777C10.8907 22.4757 11.7315 21.8737 12.123 21.4394C12.5148 21.0051 12.9807 20.3626 13.1584 20.0117C13.3362 19.6607 13.6095 19.2277 13.7659 19.0492C13.922 18.8709 14.1639 18.7687 14.3035 18.8223C14.4429 18.8759 14.6038 19.1086 14.6609 19.3393ZM19.3335 19.2468C19.2784 19.3362 19.7002 19.8124 20.271 20.3051C20.9168 20.8628 21.5041 21.6007 21.8266 22.2598C22.2372 23.0988 22.3475 23.609 22.3585 24.7196C22.3691 25.7779 22.2652 26.3649 21.9342 27.119C21.6932 27.6681 21.3306 28.267 21.1284 28.4501C20.926 28.6331 20.7606 28.9059 20.7606 29.0562C20.7606 29.2102 20.9042 29.302 21.0893 29.2663C21.2701 29.2316 21.6543 28.8565 21.9433 28.433C22.2322 28.0095 22.6047 27.18 22.7712 26.5899C22.9376 25.9998 23.0739 25.1697 23.0739 24.7454C23.0739 24.321 22.9347 23.5049 22.7645 22.9322C22.5945 22.3593 22.2045 21.5261 21.898 21.0806C21.5915 20.6351 21.017 20.0038 20.6212 19.6776C20.2255 19.3515 19.7964 19.0845 19.6678 19.0845C19.5392 19.0845 19.3888 19.1575 19.3335 19.2468ZM17.4835 21.2221C17.4835 21.3376 17.8671 21.8049 18.3359 22.2606C19.0093 22.9151 19.2157 23.2721 19.3189 23.9605C19.3908 24.4399 19.3869 25.1221 19.31 25.4764C19.2333 25.8307 19.0077 26.3508 18.809 26.6323C18.61 26.9137 18.4473 27.2825 18.4473 27.4516C18.4473 27.6208 18.5206 27.7592 18.6102 27.7592C18.6999 27.7592 18.9189 27.5981 19.097 27.4013C19.2753 27.2044 19.5951 26.5481 19.8079 25.9424C20.0732 25.1877 20.1559 24.6184 20.0707 24.1317C20.0022 23.7413 19.7389 23.0589 19.4852 22.6151C19.2317 22.1715 18.7725 21.6293 18.4651 21.4103C18.1574 21.1913 17.8108 21.0122 17.6948 21.0122C17.5785 21.0122 17.4835 21.1067 17.4835 21.2221ZM7.89767 26.0962C8.09699 27.355 8.18837 28.4532 8.10066 28.5367C8.01295 28.62 6.70749 28.8756 5.19982 29.1044C2.86206 29.4593 2.37936 29.4832 1.92268 29.2663C1.62793 29.1266 1.22677 28.6846 1.03111 28.284C0.827736 27.8674 0.67853 27.1518 0.682578 26.6124C0.686626 26.0937 0.799398 25.4942 0.932989 25.2802C1.06658 25.066 1.36461 24.79 1.59497 24.6668C1.82533 24.5434 3.08742 24.2868 4.39923 24.0966C5.71124 23.9063 6.95347 23.7635 7.15993 23.7791C7.48668 23.8037 7.5821 24.1033 7.89767 26.0962ZM3.50747 25.3831C3.18939 25.4228 2.73406 25.4982 2.49541 25.5506C2.25695 25.6031 2.06167 25.7746 2.06167 25.9316C2.06167 26.0887 2.20644 26.2171 2.38322 26.2171C2.56018 26.2171 3.25416 26.1214 3.9254 26.0044C4.74063 25.8626 5.14603 25.7026 5.14603 25.5225C5.14603 25.3502 4.955 25.2636 4.61591 25.2821C4.32444 25.2979 3.82554 25.3434 3.50747 25.3831ZM3.89301 27.084C3.78699 27.12 3.37503 27.2037 2.97734 27.2702C2.50062 27.35 2.25445 27.4942 2.25445 27.6935C2.25445 27.9435 2.41252 27.9736 3.17011 27.8678C3.67383 27.7974 4.36762 27.6912 4.7123 27.6316C5.06642 27.5705 5.33881 27.4072 5.33881 27.2559C5.33881 27.0791 5.1256 26.9934 4.7123 27.0034C4.36762 27.0117 3.99904 27.0481 3.89301 27.084ZM25.717 27.8049C25.536 27.9387 24.6519 29.74 23.7526 31.8075C22.8532 33.875 22.1156 35.751 22.1137 35.9768C22.1116 36.2023 22.2185 36.4749 22.351 36.5822C22.4836 36.6898 24.3612 37.5378 26.5235 38.4668C29.2426 39.6348 30.5394 40.1021 30.7281 39.9816C30.8781 39.8858 31.3912 38.8967 31.8684 37.7834C32.3455 36.6702 33.1264 34.8691 33.6039 33.7811C34.112 32.6233 34.4253 31.6558 34.3594 31.4483C34.2824 31.206 32.9866 30.55 30.2703 29.3781C28.0831 28.4347 26.2379 27.6399 26.17 27.6122C26.1019 27.5842 25.8982 27.671 25.717 27.8049ZM29.9173 29.9266C31.6137 30.6651 33.1921 31.3431 33.4248 31.4333C33.8389 31.5935 33.8123 31.6795 32.1993 35.4131C31.2925 37.512 30.5159 39.266 30.4734 39.3109C30.431 39.3561 29.8548 39.1662 29.1929 38.8894C28.5311 38.6125 26.8619 37.8958 25.4835 37.2967C24.1052 36.6975 22.9133 36.1464 22.8348 36.072C22.7564 35.9976 23.3488 34.422 24.1513 32.5708C24.9536 30.7197 25.6902 29.004 25.7879 28.7584C25.9283 28.4058 26.057 28.3403 26.3994 28.4476C26.6379 28.5224 28.2209 29.1879 29.9173 29.9266ZM7.96784 30.321C8.30037 30.7675 8.89719 31.5441 9.29373 32.0471C9.92448 32.8469 9.98154 33.0015 9.74925 33.2814C9.60313 33.4574 9.2278 33.709 8.91531 33.8404C8.60264 33.9719 8.22712 34.0334 8.08042 33.9771C7.93391 33.9208 7.08436 33.004 6.19279 31.9395C5.30122 30.8752 4.61572 29.9603 4.66969 29.9063C4.72348 29.8524 5.13466 29.7485 5.58343 29.6754C6.03202 29.6023 6.61592 29.5351 6.88099 29.5258C7.23299 29.5137 7.52581 29.7278 7.96784 30.321ZM26.4075 31.6629C26.3067 31.7955 26.0329 32.36 25.7997 32.9174C25.4966 33.6407 25.4276 34.029 25.5585 34.2736C25.6593 34.4619 26.5523 34.9437 27.5425 35.3439C28.5912 35.7678 29.4809 36.0188 29.6729 35.9453C29.8541 35.8757 30.2263 35.3294 30.5001 34.7314C30.8746 33.9135 30.9525 33.5445 30.815 33.2425C30.6982 32.9863 30.0139 32.583 28.9253 32.1286C27.9865 31.7367 27.0774 31.4175 26.9046 31.419C26.7321 31.4206 26.5085 31.5305 26.4075 31.6629ZM28.9868 34.0533C28.9685 34.0706 28.6064 34.1142 28.1823 34.1502C27.7582 34.1863 27.4253 34.1483 27.4427 34.066C27.4598 33.9837 27.5726 33.6369 27.6933 33.2957L27.9125 32.6749L28.4663 33.3485C28.7709 33.7188 29.0051 34.0361 28.9868 34.0533Z" fill="white"/>
</svg>
