<svg width="43" height="40" viewBox="0 0 43 40" fill="none" xmlns="http://www.w3.org/2000/svg">
<path fill-rule="evenodd" clip-rule="evenodd" d="M20.9888 0.284548C20.8686 0.441055 20.5383 0.790815 20.255 1.06188C19.9716 1.33295 19.5054 1.71124 19.2189 1.90255C18.9324 2.09385 18.4053 2.39063 18.0475 2.562C17.6897 2.73343 17.1346 2.9596 16.8138 3.06463C16.4931 3.16966 15.959 3.31074 15.6269 3.37815C15.2949 3.44555 14.7851 3.5302 14.4939 3.56638C14.2028 3.6025 13.5211 3.63203 12.9791 3.63203H11.9936V4.94542C11.9936 5.66776 12.0232 6.62004 12.0595 7.06166C12.0957 7.50321 12.1814 8.25954 12.25 8.74236C12.3185 9.22517 12.4602 10.0152 12.5649 10.4981C12.6695 10.9809 12.8813 11.785 13.0354 12.2851C13.1896 12.7852 13.4415 13.503 13.5954 13.8804C13.7492 14.2577 14.0408 14.8926 14.2435 15.2912C14.4462 15.6898 14.8122 16.3243 15.0569 16.7013C15.3016 17.0782 15.5993 17.506 15.7184 17.6519C15.8375 17.7979 15.9126 17.9307 15.8852 17.9471C15.8578 17.9635 15.5964 18.0356 15.3044 18.1074C15.0123 18.1792 14.2422 18.2953 13.593 18.3653C12.9438 18.4354 12.2748 18.4927 12.1065 18.4927C11.8664 18.4927 11.7012 18.4381 11.3408 18.2396L10.8813 17.9864L11.1371 17.4242C11.3473 16.9623 11.3824 16.8326 11.3341 16.6972C11.2827 16.5531 10.9449 16.3859 8.65989 15.3739C6.47399 14.4057 6.02205 14.2258 5.90742 14.2783C5.80304 14.326 5.08017 15.849 2.88509 20.6462C1.29831 24.114 0 26.9907 0 27.0388C0 27.087 0.0524719 27.174 0.116563 27.2323C0.180716 27.2905 1.38027 27.8474 2.78227 28.4698C4.98266 29.4466 5.35122 29.5924 5.47671 29.535C5.56104 29.4964 5.69378 29.3166 5.79298 29.1066C5.88693 28.9076 5.96764 28.7367 5.97226 28.7267C5.97688 28.7168 6.62379 29.0806 7.40987 29.5352C8.19589 29.9898 8.87234 30.393 8.91301 30.4312C8.96992 30.4844 8.96573 30.5801 8.89495 30.8453C8.83449 31.0717 8.81637 31.3127 8.8423 31.5469C8.86391 31.7431 8.95923 32.0682 9.054 32.2694C9.16206 32.4988 9.3474 32.7444 9.55104 32.9282C9.73495 33.0942 10.0303 33.2801 10.2319 33.3568C10.5356 33.4723 10.6733 33.4874 11.1659 33.4593L11.7438 33.4262V33.701C11.7438 33.8521 11.8045 34.1389 11.8789 34.3382C11.9738 34.593 12.1177 34.8048 12.3634 35.0514C12.6092 35.2981 12.8201 35.4425 13.074 35.5378C13.3235 35.6316 13.5765 35.6735 13.893 35.6735H14.3509L14.3812 36.1281C14.4008 36.4224 14.4634 36.6932 14.5588 36.8962C14.6398 37.0686 14.8486 37.3535 15.0228 37.5292C15.2378 37.7463 15.4549 37.8922 15.6991 37.9838C15.9491 38.0778 16.2005 38.1189 16.5241 38.1189C16.8274 38.1189 17.0967 38.0781 17.2967 38.0018L17.6039 37.8846L17.6444 38.1552C17.6665 38.304 17.7686 38.5942 17.8711 38.8C17.9736 39.006 18.1676 39.2743 18.3022 39.3964C18.4368 39.5184 18.6544 39.6733 18.7856 39.7405C18.9168 39.8078 19.1934 39.8961 19.4001 39.9369C19.6765 39.9915 19.8716 39.9934 20.1375 39.9441C20.3363 39.9072 20.6359 39.8022 20.8032 39.7108C20.9705 39.6195 21.1682 39.4796 21.2425 39.4002L21.3777 39.2558L21.6828 39.4979C21.8507 39.6311 22.1438 39.7985 22.3341 39.87C22.5493 39.9508 22.8285 40 23.0725 40C23.2883 40 23.6109 39.9564 23.7895 39.9032C23.9723 39.8487 24.257 39.6898 24.4411 39.5395C24.6653 39.3564 24.8325 39.1454 24.973 38.8681C25.0873 38.6427 25.195 38.3164 25.2164 38.1306L25.2549 37.7975L25.5112 37.8485C25.6522 37.8765 25.9221 37.8975 26.1111 37.8951C26.3001 37.8927 26.6079 37.8392 26.7952 37.7762C27.0472 37.6913 27.236 37.562 27.5215 37.2789C27.8082 36.9946 27.9414 36.8029 28.04 36.5333C28.1174 36.3213 28.1725 36.0215 28.1725 35.8122V35.454L28.7191 35.4524C29.1624 35.4512 29.3213 35.4234 29.5603 35.3055C29.7223 35.2254 29.9813 35.0483 30.1358 34.9118C30.3054 34.762 30.4903 34.5096 30.6024 34.275C30.7045 34.0613 30.8066 33.7383 30.8292 33.5572C30.8518 33.3761 30.8767 33.228 30.8846 33.228C30.8924 33.228 31.0319 33.2736 31.1945 33.3292C31.3872 33.3951 31.625 33.4216 31.8772 33.4054C32.1152 33.39 32.3842 33.322 32.5764 33.2285C32.7482 33.145 33.0241 32.941 33.1894 32.7751C33.3548 32.6093 33.5452 32.3486 33.6126 32.1956C33.68 32.0426 33.764 31.7609 33.7992 31.5695C33.8418 31.3383 33.8428 31.1111 33.8022 30.8923C33.7687 30.7112 33.7235 30.5176 33.702 30.4621C33.6709 30.3818 33.98 30.1894 35.1998 29.5299C36.0452 29.0729 36.7428 28.7092 36.7501 28.7218C36.7574 28.7344 36.8403 28.9076 36.9343 29.1066C37.0324 29.3142 37.1664 29.4965 37.2488 29.5342C37.3719 29.5905 37.756 29.4387 39.9431 28.4691C41.3461 27.8472 42.5464 27.2906 42.6106 27.2324C42.6747 27.1741 42.7273 27.0882 42.7273 27.0415C42.7273 26.9948 41.9236 25.2003 40.9412 23.0538C39.9589 20.9073 38.6606 18.0689 38.0561 16.7461C37.2409 14.962 36.9216 14.3248 36.8199 14.2782C36.7051 14.2258 36.2583 14.4031 34.0985 15.3583C32.6773 15.9868 31.4794 16.5294 31.4364 16.564C31.3935 16.5987 31.3583 16.697 31.3583 16.7825C31.3583 16.868 31.4684 17.1739 31.603 17.4621L31.8477 17.9862L31.5562 18.1505C31.3958 18.2409 31.1699 18.3548 31.054 18.4038C30.9381 18.4527 30.6967 18.4927 30.5174 18.4927C30.3382 18.4927 29.7021 18.4238 29.104 18.3394C28.5058 18.2552 27.8055 18.1413 27.5478 18.0865C27.2902 18.0317 26.9726 17.9581 26.842 17.9231L26.6048 17.8592L26.8029 17.596C26.9118 17.4512 27.1967 17.0364 27.4359 16.6743C27.6752 16.3122 28.0916 15.5645 28.3612 15.0127C28.6308 14.4609 28.977 13.6567 29.1306 13.2256C29.2842 12.7946 29.5102 12.075 29.6329 11.6267C29.7555 11.1784 29.926 10.4589 30.0115 10.0278C30.0971 9.59669 30.2104 8.90539 30.2633 8.49154C30.3161 8.0777 30.3869 7.40051 30.4206 6.98666C30.4542 6.57282 30.4822 5.64876 30.4828 4.93313L30.4838 3.63203H29.4983C28.9563 3.63203 28.2746 3.6025 27.9835 3.56638C27.6923 3.5302 27.1825 3.44555 26.8505 3.37815C26.5184 3.31074 25.9843 3.16984 25.6636 3.06494C25.3428 2.9601 24.7641 2.72189 24.3775 2.53566C23.9908 2.34943 23.4584 2.04733 23.1943 1.86423C22.9302 1.6812 22.4875 1.31495 22.2106 1.05028C21.9338 0.785611 21.6088 0.441055 21.4886 0.284548C21.3683 0.12804 21.2559 0 21.2387 0C21.2215 0 21.1091 0.12804 20.9888 0.284548ZM21.6726 1.56326C21.9284 1.8046 22.3719 2.16922 22.6581 2.37364C22.9444 2.57799 23.48 2.89991 23.8484 3.08902C24.2168 3.27813 24.8549 3.54932 25.2665 3.69172C25.678 3.83412 26.3527 4.01853 26.7657 4.10149C27.1787 4.18445 27.8399 4.28201 28.235 4.31819C28.6301 4.35444 29.1431 4.38416 29.375 4.38428L29.7966 4.38447L29.7961 4.83907C29.7958 5.08913 29.7677 5.75924 29.7337 6.32828C29.6996 6.89731 29.6276 7.71559 29.5735 8.14668C29.5193 8.57776 29.4054 9.29728 29.3202 9.74561C29.2349 10.1939 29.0805 10.8806 28.977 11.2716C28.8734 11.6626 28.6803 12.2975 28.5478 12.6825C28.4153 13.0674 28.2048 13.6222 28.0799 13.9154C27.9551 14.2085 27.6977 14.7446 27.508 15.1068C27.3182 15.4689 26.9572 16.0755 26.7056 16.4549C26.4541 16.8342 26.1525 17.255 26.0355 17.3898L25.8226 17.6351L25.0143 17.4023C24.5696 17.2742 24.034 17.1531 23.8239 17.1331C23.5995 17.1117 23.303 17.1296 23.1055 17.1763C22.9205 17.2202 22.4318 17.38 22.0195 17.5316L21.2699 17.8071L20.614 17.4963C20.2533 17.3254 19.7983 17.1565 19.6028 17.1209C19.3622 17.0771 19.1203 17.0766 18.8532 17.1193C18.6364 17.1539 18.0663 17.2975 17.5865 17.4383L16.714 17.6944L16.47 17.4195C16.3358 17.2683 16.0065 16.8121 15.7382 16.4056C15.4698 15.9991 15.0957 15.3633 14.9068 14.9924C14.7178 14.6217 14.4378 14.009 14.2845 13.6309C14.1311 13.2528 13.902 12.6194 13.7754 12.2234C13.6487 11.8274 13.4647 11.1643 13.3663 10.7499C13.268 10.3355 13.1318 9.65783 13.0637 9.24399C12.9955 8.83014 12.9099 8.2517 12.8734 7.95857C12.8369 7.66543 12.7786 6.97412 12.7441 6.42233C12.7095 5.87054 12.6811 5.18632 12.681 4.90177L12.6808 4.38447L13.1024 4.38428C13.3343 4.38416 13.8473 4.35444 14.2424 4.31819C14.6375 4.28201 15.2987 4.18445 15.7117 4.10149C16.1247 4.01853 16.7994 3.83438 17.2109 3.69223C17.6225 3.55014 18.2825 3.26635 18.6776 3.06162C19.0727 2.85689 19.6349 2.51027 19.9269 2.29131C20.2189 2.07235 20.6265 1.72503 20.8327 1.51949C21.0388 1.31395 21.2075 1.14101 21.2075 1.13512C21.2075 1.12929 21.4168 1.32198 21.6726 1.56326ZM22.4256 9.68291C21.1031 11.0107 19.9927 12.097 19.9578 12.097C19.9229 12.097 19.3891 11.5892 18.7715 10.9685L17.6486 9.84011L17.0075 10.4814C16.6548 10.8342 16.3663 11.1522 16.3663 11.1882C16.3663 11.224 17.168 12.0564 18.1478 13.0377L19.9294 14.822L23.0356 11.7039L26.1419 8.58591L25.4859 7.9274L24.8299 7.26889L22.4256 9.68291ZM8.42995 16.0692C9.54492 16.5644 10.466 16.9963 10.4769 17.029C10.4877 17.0617 9.30549 19.6905 7.8497 22.8709C6.39397 26.0513 5.18843 28.6679 5.17075 28.6856C5.15307 28.7034 4.18621 28.2953 3.0222 27.7787C1.85814 27.2622 0.905768 26.8137 0.905768 26.7821C0.905768 26.7504 2.10045 24.1111 3.56061 20.917C5.58528 16.488 6.23768 15.1165 6.30914 15.1391C6.36068 15.1554 7.31505 15.574 8.42995 16.0692ZM37.3042 16.8473C37.7399 17.804 38.9419 20.4333 39.9752 22.6901C41.0085 24.947 41.8326 26.8118 41.8065 26.8341C41.7804 26.8565 40.8204 27.2901 39.6732 27.7978C38.526 28.3054 37.5676 28.698 37.5435 28.6701C37.5194 28.6422 36.3246 26.0516 34.8884 22.9133C33.4523 19.775 32.2743 17.1548 32.2707 17.0906C32.2653 16.996 32.6604 16.7975 34.3567 16.0423C35.5077 15.53 36.4634 15.1101 36.4806 15.1093C36.4978 15.1084 36.8684 15.8905 37.3042 16.8473ZM19.9491 17.9914C20.116 18.0667 20.2284 18.1489 20.199 18.1741C20.1696 18.1994 19.6536 18.3986 19.0524 18.6166C18.4511 18.8348 17.5657 19.1804 17.0847 19.3847C16.6037 19.5889 15.9712 19.8841 15.6792 20.0405C15.3871 20.197 14.6796 20.592 14.1067 20.9185C13.1351 21.4723 13.0581 21.5296 12.958 21.7738C12.8991 21.9177 12.837 22.2546 12.8201 22.5225C12.7971 22.8886 12.8159 23.0788 12.8958 23.2889C12.9608 23.4597 13.1199 23.6745 13.3052 23.8417C13.5129 24.0292 13.7411 24.1591 14.0304 24.2544C14.282 24.3373 14.6941 24.4082 15.0502 24.43C15.379 24.4501 15.9431 24.4329 16.3038 24.3919C16.6646 24.3509 17.1987 24.2615 17.4907 24.1933C17.7827 24.1251 18.4855 23.917 19.0524 23.7308C19.6193 23.5446 20.3087 23.3349 20.5845 23.2648C20.8602 23.1946 21.3521 23.1061 21.6777 23.0679C22.0803 23.0207 22.4231 23.0179 22.7502 23.0592C23.1764 23.1129 23.3183 23.1693 23.9995 23.5561C24.4223 23.796 25.1312 24.2238 25.5751 24.5066C26.0189 24.7894 26.7919 25.3143 27.2929 25.6731C27.7938 26.0318 28.5973 26.6417 29.0783 27.0285C29.5593 27.4152 30.2728 28.014 30.664 28.3591C31.0552 28.7041 31.713 29.313 32.1259 29.7121C32.5805 30.1515 32.9215 30.5367 32.9906 30.6885C33.0534 30.8265 33.1051 31.0522 33.1056 31.1902C33.1062 31.3281 33.0762 31.5512 33.039 31.6858C32.9961 31.8407 32.8526 32.0497 32.6489 32.2542C32.4246 32.4794 32.2458 32.5984 32.0611 32.6455C31.8842 32.6905 31.707 32.6932 31.5301 32.6535C31.3841 32.6207 31.1421 32.5219 30.9923 32.434C30.8424 32.346 30.1265 31.6986 29.4013 30.9954C28.4156 30.0394 28.0441 29.7166 27.9295 29.7166C27.8452 29.7166 27.7249 29.7634 27.6621 29.8204C27.5993 29.8775 27.5478 29.9858 27.5478 30.0611C27.5478 30.1559 27.9065 30.5525 28.7116 31.3482C29.4691 32.0969 29.9157 32.5875 29.9908 32.7535C30.0543 32.8938 30.1062 33.1497 30.1062 33.3221C30.1062 33.4945 30.0546 33.7485 29.9916 33.8864C29.9286 34.0244 29.796 34.2177 29.6971 34.316C29.5981 34.4143 29.4125 34.5483 29.2846 34.6138C29.1412 34.6873 28.9253 34.7324 28.7216 34.7315C28.5321 34.7307 28.2786 34.6789 28.1273 34.61C27.9637 34.5354 27.3899 34.0358 26.6165 33.2946C25.9306 32.6372 25.3317 32.0994 25.2856 32.0994C25.2396 32.0994 25.1394 32.1433 25.0631 32.197C24.9792 32.2559 24.9242 32.3602 24.9242 32.4602C24.9242 32.5912 25.1766 32.8817 26.1327 33.8517C27.2371 34.9721 27.3478 35.1044 27.4169 35.3866C27.4588 35.5573 27.4744 35.8097 27.4518 35.9509C27.4293 36.0914 27.3427 36.3254 27.2594 36.4708C27.176 36.6162 27.0171 36.8028 26.9062 36.8854C26.7952 36.968 26.609 37.0677 26.4922 37.107C26.3754 37.1462 26.1786 37.1782 26.055 37.178C25.9312 37.1778 25.7184 37.1466 25.582 37.1086C25.3891 37.0548 25.1358 36.8433 24.4407 36.1559C23.9493 35.67 23.4796 35.1564 23.3969 35.0147C23.3142 34.873 23.1159 34.6362 22.9563 34.4886C22.7967 34.3409 22.5347 34.1591 22.3741 34.0846C22.1344 33.9734 21.9684 33.9494 21.4481 33.9508L20.8142 33.9526L20.79 33.5746C20.7761 33.3575 20.7068 33.0746 20.6272 32.9098C20.5509 32.752 20.3891 32.5063 20.2675 32.3637C20.1356 32.209 19.8784 32.0215 19.629 31.8982C19.2602 31.7159 19.1518 31.6918 18.7019 31.6918H18.1924L18.164 31.2494C18.1453 30.9572 18.0814 30.6881 17.9758 30.4564C17.8877 30.2635 17.6976 29.987 17.5532 29.8421C17.4087 29.6971 17.1344 29.5067 16.9436 29.419C16.7289 29.3204 16.4397 29.2483 16.1848 29.23C15.9582 29.2138 15.6711 29.2286 15.5467 29.2631L15.3207 29.3258L15.2807 28.9412C15.2588 28.7297 15.1699 28.4109 15.0833 28.2328C14.9966 28.0548 14.8071 27.7894 14.6621 27.6431C14.5172 27.4968 14.244 27.3039 14.055 27.2144C13.7593 27.0744 13.6288 27.052 13.118 27.0533C12.6217 27.0547 12.4735 27.0796 12.2123 27.2056C11.9891 27.3133 11.5414 27.7121 10.6443 28.6022L9.38875 29.848L7.86457 28.9596C7.02626 28.4709 6.3292 28.061 6.31551 28.0485C6.30183 28.0361 7.24121 25.9445 8.40297 23.4005C9.56472 20.8564 10.5351 18.7517 10.5593 18.7233C10.5836 18.695 10.8472 18.8007 11.1451 18.9584C11.5457 19.1706 11.7567 19.2452 11.956 19.2452C12.1041 19.2452 12.7564 19.1878 13.4056 19.1177C14.0548 19.0476 14.7547 18.9613 14.9608 18.9258C15.1669 18.8904 16.0946 18.6391 17.0222 18.3673C17.9498 18.0954 18.765 17.8589 18.8337 17.8416C18.9024 17.8244 19.1133 17.8202 19.3022 17.8324C19.4912 17.8446 19.7823 17.9162 19.9491 17.9914ZM25.2794 18.2425C25.9945 18.4498 26.9872 18.7024 27.4854 18.8038C27.9836 18.9053 28.869 19.0487 29.4531 19.1227C30.049 19.1981 30.6504 19.2415 30.8234 19.2214C31.0011 19.2008 31.3434 19.0779 31.6307 18.9315C31.9051 18.7918 32.1478 18.6994 32.1702 18.7262C32.1926 18.753 33.1637 20.8609 34.3284 23.4103C35.493 25.9598 36.4185 28.0553 36.3851 28.0669C36.3517 28.0785 35.6319 28.4641 34.7856 28.9239L33.2468 29.7597L32.4093 28.97C31.9488 28.5358 31.2779 27.9248 30.9186 27.6123C30.5592 27.2999 29.9841 26.8173 29.6405 26.5398C29.2969 26.2624 28.6644 25.7741 28.235 25.4548C27.8055 25.1355 27.0606 24.6132 26.5796 24.2942C26.0986 23.9751 25.4099 23.5372 25.0492 23.3209C24.6884 23.1047 24.145 22.7975 23.8416 22.6384L23.2899 22.349L22.2487 22.3508C21.3838 22.3524 21.1122 22.3765 20.6453 22.493C20.3361 22.5702 19.563 22.8002 18.9274 23.0041C18.2918 23.2081 17.6031 23.4173 17.397 23.4693C17.1909 23.5211 16.7894 23.597 16.5048 23.6379C16.2203 23.6787 15.6441 23.7003 15.2243 23.6859C14.5674 23.6633 14.4117 23.6369 14.1072 23.4962C13.9125 23.4063 13.7106 23.2665 13.6585 23.1857C13.6064 23.1049 13.5453 22.9634 13.5228 22.8714C13.5003 22.7794 13.513 22.5537 13.5511 22.3698L13.6203 22.0355L14.6634 21.4398C15.2371 21.1122 15.9962 20.698 16.3505 20.5193C16.7047 20.3407 17.4224 20.0251 17.9453 19.818C18.4683 19.6108 19.8238 19.1043 20.9576 18.6924C22.0914 18.2804 23.0752 17.9292 23.1439 17.9118C23.2127 17.8945 23.4287 17.877 23.624 17.873C23.8878 17.8676 24.3133 17.9626 25.2794 18.2425ZM13.8063 27.8989C13.9345 27.9645 14.1174 28.1111 14.2128 28.2247C14.3082 28.3383 14.4242 28.522 14.4706 28.633C14.5168 28.744 14.5541 28.9838 14.5534 29.166C14.5526 29.3525 14.5017 29.6067 14.4369 29.748C14.3664 29.9014 13.8999 30.4221 13.2358 31.0885C12.6385 31.6877 12.0293 32.2848 11.8819 32.4152C11.7107 32.5668 11.5023 32.6793 11.3041 32.727C11.0642 32.7848 10.9239 32.7847 10.6829 32.7267C10.5118 32.6855 10.2626 32.5723 10.1292 32.4753C9.98594 32.3712 9.81921 32.1632 9.72202 31.9674C9.62519 31.7724 9.55754 31.5312 9.55779 31.3817C9.55798 31.2418 9.58871 31.0146 9.62613 30.8767C9.6816 30.6721 9.93228 30.3849 10.9844 29.32C11.6941 28.6018 12.3589 27.9697 12.4617 27.9154C12.5646 27.861 12.7192 27.7937 12.8053 27.7657C12.8914 27.7377 13.0995 27.7294 13.2676 27.7472C13.4358 27.765 13.6782 27.8332 13.8063 27.8989ZM16.6162 30.0728C16.7364 30.122 16.9158 30.2383 17.0147 30.3313C17.1136 30.4243 17.2505 30.6249 17.3188 30.777C17.3871 30.9291 17.4445 31.1831 17.4465 31.3414C17.4484 31.4996 17.4131 31.742 17.3679 31.8799C17.3053 32.0715 16.9965 32.4246 16.0609 33.3744C15.3871 34.0585 14.7094 34.6932 14.5548 34.785C14.3336 34.9163 14.1937 34.9518 13.8989 34.9511C13.6331 34.9504 13.4362 34.907 13.2217 34.8018C13.0452 34.7153 12.8436 34.5486 12.7374 34.4014C12.6373 34.2627 12.5245 34.034 12.4867 33.8931C12.4489 33.7522 12.4344 33.5166 12.4545 33.3696C12.4746 33.2225 12.5453 32.9965 12.6117 32.8673C12.6781 32.7381 13.304 32.0649 14.0027 31.3713C14.9114 30.4693 15.3354 30.091 15.4918 30.043C15.612 30.0059 15.7666 29.963 15.8353 29.9476C15.904 29.9323 16.0586 29.934 16.1789 29.9515C16.2991 29.969 16.4959 30.0236 16.6162 30.0728ZM19.298 32.5362C19.4304 32.6039 19.6367 32.7744 19.7566 32.915C19.8765 33.0555 20.0097 33.2963 20.0525 33.4498C20.098 33.613 20.113 33.8382 20.0885 33.9919C20.0655 34.1364 20.0046 34.3436 19.9532 34.4523C19.9018 34.5609 19.2635 35.2418 18.5347 35.9652C17.4532 37.0388 17.1623 37.2943 16.9525 37.3549C16.8111 37.3957 16.6108 37.4292 16.5075 37.4292C16.4041 37.4292 16.1966 37.3856 16.0464 37.3324C15.8962 37.2792 15.6794 37.1452 15.5646 37.0346C15.4498 36.924 15.2977 36.7206 15.2265 36.5827C15.1419 36.4187 15.097 36.2124 15.0967 35.987C15.0964 35.7826 15.1433 35.54 15.2118 35.3913C15.2813 35.2406 15.7903 34.6688 16.4872 33.9587C17.1687 33.2642 17.7756 32.7021 17.9592 32.5955C18.2129 32.4481 18.3454 32.414 18.6644 32.4135C18.9327 32.4131 19.1337 32.452 19.298 32.5362ZM22.0505 34.746C22.1362 34.778 22.3009 34.8766 22.4164 34.965C22.5319 35.0535 22.6934 35.2702 22.7753 35.4467C22.8697 35.6504 22.9243 35.8832 22.9247 36.0844C22.9251 36.2975 22.8743 36.5041 22.7695 36.7152C22.6616 36.9324 22.3011 37.3384 21.5983 38.0344C20.8028 38.8219 20.5184 39.0641 20.2856 39.1523C20.0724 39.2331 19.8932 39.2551 19.6523 39.2302C19.4675 39.2111 19.2353 39.1533 19.1362 39.1019C19.0371 39.0505 18.8753 38.9282 18.7766 38.8301C18.6779 38.7321 18.5456 38.539 18.4826 38.4011C18.4156 38.2545 18.368 38.007 18.368 37.8054C18.368 37.6005 18.4152 37.3587 18.4844 37.2097C18.5562 37.0549 19.0163 36.5476 19.6855 35.8852C20.4516 35.1268 20.8344 34.7919 20.9888 34.7449C21.1091 34.7083 21.2637 34.6658 21.3324 34.6504C21.4011 34.635 21.5557 34.6371 21.676 34.6551C21.7962 34.673 21.9648 34.714 22.0505 34.746ZM24.3679 37.2724C24.4342 37.4154 24.4849 37.6657 24.4856 37.8544C24.4864 38.0366 24.4434 38.2905 24.3902 38.4187C24.337 38.547 24.1896 38.7589 24.0626 38.8897C23.9079 39.049 23.7225 39.1595 23.5011 39.224C23.2839 39.2874 23.0803 39.3054 22.9074 39.2765C22.7626 39.2523 22.5458 39.1822 22.4256 39.1207C22.3053 39.0593 22.1443 38.9416 22.0678 38.8592L21.9286 38.7095L22.5898 38.0537C23.0745 37.5729 23.2992 37.2974 23.4317 37.0216C23.531 36.8147 23.6124 36.59 23.6124 36.5223C23.6124 36.4245 23.6781 36.4632 23.932 36.7105C24.1077 36.8816 24.3039 37.1345 24.3679 37.2724Z" fill="white"/>
</svg>
