<svg width="35" height="35" viewBox="0 0 35 35" fill="none" xmlns="http://www.w3.org/2000/svg">
<rect width="35" height="35" rx="17.5" fill="white"/>
<path d="M28.706 10.1895C27.871 10.5595 26.974 10.8095 26.031 10.9225C27.004 10.3403 27.7319 9.42398 28.079 8.34452C27.1648 8.88751 26.1643 9.26971 25.121 9.47452C24.4194 8.72538 23.4901 8.22884 22.4773 8.06199C21.4646 7.89514 20.4251 8.06731 19.5202 8.55177C18.6154 9.03623 17.8958 9.80588 17.4732 10.7412C17.0505 11.6766 16.9485 12.7253 17.183 13.7245C15.3307 13.6315 13.5186 13.1501 11.8644 12.3114C10.2102 11.4728 8.75084 10.2957 7.581 8.85652C7.181 9.54652 6.951 10.3465 6.951 11.1985C6.95055 11.9655 7.13943 12.7208 7.50088 13.3973C7.86232 14.0737 8.38516 14.6506 9.023 15.0765C8.28328 15.053 7.55987 14.8531 6.913 14.4935V14.5535C6.91293 15.6293 7.28503 16.6719 7.96618 17.5045C8.64733 18.3371 9.59557 18.9084 10.65 19.1215C9.96378 19.3072 9.24434 19.3346 8.546 19.2015C8.8435 20.1271 9.423 20.9365 10.2034 21.5164C10.9837 22.0963 11.9259 22.4177 12.898 22.4355C11.2478 23.7309 9.20989 24.4336 7.112 24.4305C6.74038 24.4306 6.36908 24.4089 6 24.3655C8.12948 25.7347 10.6083 26.4613 13.14 26.4585C21.71 26.4585 26.395 19.3605 26.395 13.2045C26.395 13.0045 26.39 12.8025 26.381 12.6025C27.2923 11.9435 28.0789 11.1274 28.704 10.1925L28.706 10.1895Z" fill="#040404"/>
</svg>
