<svg width="40" height="40" viewBox="0 0 40 40" fill="none" xmlns="http://www.w3.org/2000/svg">
<path d="M24.881 15C25.7761 15 26.6346 15.3556 27.2675 15.9885C27.9004 16.6215 28.256 17.4799 28.256 18.375V27.7485C28.256 29.9369 27.3866 32.0357 25.8392 33.5832C24.2917 35.1306 22.1929 36 20.0045 36C17.8161 36 15.7173 35.1306 14.1698 33.5832C12.6224 32.0357 11.753 29.9369 11.753 27.7485V18.375C11.753 17.4799 12.1086 16.6215 12.7415 15.9885C13.3745 15.3556 14.2329 15 15.128 15H24.881ZM24.881 17.25H15.128C14.8296 17.25 14.5435 17.3685 14.3325 17.5795C14.1215 17.7905 14.003 18.0766 14.003 18.375V27.7485C14.003 29.3402 14.6353 30.8667 15.7608 31.9922C16.8863 33.1177 18.4128 33.75 20.0045 33.75C21.5962 33.75 23.1227 33.1177 24.2482 31.9922C25.3737 30.8667 26.006 29.3402 26.006 27.7485V18.375C26.006 18.0766 25.8875 17.7905 25.6765 17.5795C25.4655 17.3685 25.1794 17.25 24.881 17.25ZM5.375 15H11.609C11.0068 15.627 10.5836 16.404 10.3835 17.25H5.375C5.07663 17.25 4.79048 17.3685 4.57951 17.5795C4.36853 17.7905 4.25 18.0766 4.25 18.375V26.2485C4.2498 27.0011 4.43831 27.7418 4.79829 28.4028C5.15827 29.0637 5.67823 29.6239 6.31061 30.032C6.94299 30.4401 7.6676 30.6831 8.41816 30.7388C9.16872 30.7946 9.92128 30.6612 10.607 30.351C10.8065 31.086 11.093 31.785 11.453 32.439C10.4253 32.8877 9.30203 33.0734 8.1846 32.9792C7.06718 32.885 5.99081 32.514 5.05269 31.8997C4.11457 31.2853 3.34424 30.447 2.81128 29.4604C2.27831 28.4737 1.9995 27.3699 2 26.2485V18.375C2 17.4799 2.35558 16.6215 2.98852 15.9885C3.62145 15.3556 4.4799 15 5.375 15ZM34.625 15C35.5201 15 36.3786 15.3556 37.0115 15.9885C37.6444 16.6215 38 17.4799 38 18.375V26.25C38.0005 27.3707 37.7218 28.474 37.1893 29.4601C36.6567 30.4462 35.887 31.2843 34.9496 31.8985C34.0122 32.5128 32.9366 32.884 31.8199 32.9786C30.7031 33.0732 29.5804 32.8883 28.553 32.4405L28.637 32.2875C28.958 31.6785 29.2175 31.032 29.4035 30.354C30.0888 30.6624 30.8405 30.7942 31.5899 30.7374C32.3393 30.6807 33.0625 30.4371 33.6936 30.0291C34.3246 29.621 34.8434 29.0613 35.2027 28.4012C35.5619 27.7411 35.75 27.0015 35.75 26.25V18.375C35.75 18.0769 35.6317 17.791 35.421 17.58C35.2104 17.3691 34.9246 17.2504 34.6265 17.25H29.627C29.4265 16.4038 29.0028 15.6268 28.4 15H34.6265H34.625ZM20 3C20.6894 3 21.3721 3.1358 22.0091 3.39963C22.646 3.66347 23.2248 4.05018 23.7123 4.53769C24.1998 5.0252 24.5865 5.60395 24.8504 6.24091C25.1142 6.87787 25.25 7.56056 25.25 8.25C25.25 8.93944 25.1142 9.62213 24.8504 10.2591C24.5865 10.896 24.1998 11.4748 23.7123 11.9623C23.2248 12.4498 22.646 12.8365 22.0091 13.1004C21.3721 13.3642 20.6894 13.5 20 13.5C18.6076 13.5 17.2723 12.9469 16.2877 11.9623C15.3031 10.9777 14.75 9.64239 14.75 8.25C14.75 6.85761 15.3031 5.52226 16.2877 4.53769C17.2723 3.55312 18.6076 3 20 3ZM32.0045 4.5C32.5954 4.5 33.1806 4.6164 33.7266 4.84254C34.2725 5.06869 34.7686 5.40016 35.1865 5.81802C35.6043 6.23588 35.9358 6.73196 36.162 7.27792C36.3881 7.82389 36.5045 8.40905 36.5045 9C36.5045 9.59095 36.3881 10.1761 36.162 10.7221C35.9358 11.268 35.6043 11.7641 35.1865 12.182C34.7686 12.5998 34.2725 12.9313 33.7266 13.1575C33.1806 13.3836 32.5954 13.5 32.0045 13.5C30.811 13.5 29.6664 13.0259 28.8225 12.182C27.9786 11.3381 27.5045 10.1935 27.5045 9C27.5045 7.80653 27.9786 6.66193 28.8225 5.81802C29.6664 4.97411 30.811 4.5 32.0045 4.5ZM7.9955 4.5C8.58645 4.5 9.17161 4.6164 9.71758 4.84254C10.2635 5.06869 10.7596 5.40016 11.1775 5.81802C11.5953 6.23588 11.9268 6.73196 12.153 7.27792C12.3791 7.82389 12.4955 8.40905 12.4955 9C12.4955 9.59095 12.3791 10.1761 12.153 10.7221C11.9268 11.268 11.5953 11.7641 11.1775 12.182C10.7596 12.5998 10.2635 12.9313 9.71758 13.1575C9.17161 13.3836 8.58645 13.5 7.9955 13.5C6.80203 13.5 5.65743 13.0259 4.81352 12.182C3.96961 11.3381 3.4955 10.1935 3.4955 9C3.4955 7.80653 3.96961 6.66193 4.81352 5.81802C5.65743 4.97411 6.80203 4.5 7.9955 4.5ZM20 5.25C19.2044 5.25 18.4413 5.56607 17.8787 6.12868C17.3161 6.69129 17 7.45435 17 8.25C17 9.04565 17.3161 9.80871 17.8787 10.3713C18.4413 10.9339 19.2044 11.25 20 11.25C20.7956 11.25 21.5587 10.9339 22.1213 10.3713C22.6839 9.80871 23 9.04565 23 8.25C23 7.45435 22.6839 6.69129 22.1213 6.12868C21.5587 5.56607 20.7956 5.25 20 5.25ZM32.0045 6.75C31.709 6.75 31.4164 6.8082 31.1435 6.92127C30.8705 7.03434 30.6224 7.20008 30.4135 7.40901C30.2046 7.61794 30.0388 7.86598 29.9258 8.13896C29.8127 8.41194 29.7545 8.70453 29.7545 9C29.7545 9.29547 29.8127 9.58806 29.9258 9.86104C30.0388 10.134 30.2046 10.3821 30.4135 10.591C30.6224 10.7999 30.8705 10.9657 31.1435 11.0787C31.4164 11.1918 31.709 11.25 32.0045 11.25C32.6012 11.25 33.1735 11.0129 33.5955 10.591C34.0174 10.169 34.2545 9.59674 34.2545 9C34.2545 8.40326 34.0174 7.83097 33.5955 7.40901C33.1735 6.98705 32.6012 6.75 32.0045 6.75ZM7.9955 6.75C7.70003 6.75 7.40745 6.8082 7.13446 6.92127C6.86148 7.03434 6.61344 7.20008 6.40451 7.40901C6.19558 7.61794 6.02984 7.86598 5.91677 8.13896C5.8037 8.41194 5.7455 8.70453 5.7455 9C5.7455 9.29547 5.8037 9.58806 5.91677 9.86104C6.02984 10.134 6.19558 10.3821 6.40451 10.591C6.61344 10.7999 6.86148 10.9657 7.13446 11.0787C7.40745 11.1918 7.70003 11.25 7.9955 11.25C8.59224 11.25 9.16453 11.0129 9.58649 10.591C10.0084 10.169 10.2455 9.59674 10.2455 9C10.2455 8.40326 10.0084 7.83097 9.58649 7.40901C9.16453 6.98705 8.59224 6.75 7.9955 6.75Z" fill="white"/>
</svg>
