<svg width="35" height="35" viewBox="0 0 35 35" fill="none" xmlns="http://www.w3.org/2000/svg">
<rect width="35" height="35" rx="17.5" fill="white"/>
<path d="M28.5006 11.512C28.3647 11.0272 28.1 10.5883 27.7346 10.242C27.3589 9.88496 26.8984 9.62959 26.3966 9.49996C24.5186 9.00496 16.9946 9.00496 16.9946 9.00496C13.8579 8.96927 10.722 9.12623 7.60462 9.47496C7.10281 9.61417 6.64318 9.87525 6.26662 10.235C5.89662 10.591 5.62862 11.03 5.48862 11.511C5.15231 13.3227 4.98891 15.1623 5.00062 17.005C4.98862 18.846 5.15162 20.685 5.48862 22.499C5.62562 22.978 5.89262 23.415 6.26362 23.768C6.63462 24.121 7.09662 24.376 7.60462 24.511C9.50762 25.005 16.9946 25.005 16.9946 25.005C20.1353 25.0407 23.2752 24.8837 26.3966 24.535C26.8984 24.4053 27.3589 24.15 27.7346 23.793C28.0999 23.4467 28.3643 23.0077 28.4996 22.523C28.8447 20.7119 29.0125 18.8716 29.0006 17.028C29.0266 15.1766 28.859 13.3275 28.5006 11.511V11.512ZM14.6026 20.429V13.582L20.8626 17.006L14.6026 20.429Z" fill="#040404"/>
</svg>
